<?xml version="1.0" encoding="utf-8"?>
<!-- Generator: Adobe Illustrator 18.1.0, SVG Export Plug-In . SVG Version: 6.00 Build 0)  -->
<!DOCTYPE svg PUBLIC "-//W3C//DTD SVG 1.1//EN" "http://www.w3.org/Graphics/SVG/1.1/DTD/svg11.dtd">
<svg version="1.1" id="Layer_1" xmlns="http://www.w3.org/2000/svg" xmlns:xlink="http://www.w3.org/1999/xlink" x="0px" y="0px"
	 viewBox="0 0 292 360" style="enable-background:new 0 0 292 360;" xml:space="preserve">
<g>
	<path style="fill:none;stroke:#87724F;stroke-miterlimit:10;" d="M284,333V26.3c-10.5,0-19-8.5-19-19c0-0.1,0-0.2,0-0.3H27.6
		c0,0.1,0,0.2,0,0.3c0,10.4-8.3,18.8-18.7,19V333c10.3,0.2,18.7,8.6,18.7,19H265C265,341.5,273.5,333,284,333z"/>
	<g>
		<path style="fill:#87724F;" d="M16.4,11.9c2.4,2.4,2.1,3.2,1.4,3.9c-0.7,0.7-1.5,1-3.9-1.4S9,7,9,7S14,9.4,16.4,11.9z"/>
		<g>
			<circle style="fill:#87724F;" cx="13" cy="17.1" r="1.7"/>
			<circle style="fill:#87724F;" cx="19.1" cy="11" r="1.7"/>
		</g>
	</g>
	<g>
		<path style="fill:#87724F;" d="M276.6,11.9c-2.4,2.4-2.1,3.2-1.4,3.9c0.7,0.7,1.5,1,3.9-1.4S284,7,284,7S279,9.4,276.6,11.9z"/>
		<g>
			<circle style="fill:#87724F;" cx="280" cy="17.1" r="1.7"/>
			<circle style="fill:#87724F;" cx="273.9" cy="11" r="1.7"/>
		</g>
	</g>
	<g>
		<path style="fill:#87724F;" d="M276.6,347.1c-2.4-2.4-2.1-3.2-1.4-3.9c0.7-0.7,1.5-1,3.9,1.4s4.9,7.4,4.9,7.4
			S279,349.6,276.6,347.1z"/>
		<g>
			<circle style="fill:#87724F;" cx="280" cy="341.9" r="1.7"/>
			<circle style="fill:#87724F;" cx="273.9" cy="348" r="1.7"/>
		</g>
	</g>
	<g>
		<path style="fill:#87724F;" d="M16.4,347.1c2.4-2.4,2.1-3.2,1.4-3.9c-0.7-0.7-1.5-1-3.9,1.4S9,352,9,352S14,349.6,16.4,347.1z"/>
		<g>
			<circle style="fill:#87724F;" cx="13" cy="341.9" r="1.7"/>
			<circle style="fill:#87724F;" cx="19.1" cy="348" r="1.7"/>
		</g>
	</g>
</g>
<g>
</g>
<g>
</g>
<g>
</g>
<g>
</g>
<g>
</g>
<g>
</g>
</svg>
