<?xml version="1.0" encoding="utf-8"?>
<!-- Generator: Adobe Illustrator 18.1.0, SVG Export Plug-In . SVG Version: 6.00 Build 0)  -->
<!DOCTYPE svg PUBLIC "-//W3C//DTD SVG 1.1//EN" "http://www.w3.org/Graphics/SVG/1.1/DTD/svg11.dtd">
<svg version="1.1" id="Layer_1" xmlns="http://www.w3.org/2000/svg" xmlns:xlink="http://www.w3.org/1999/xlink" x="0px" y="0px"
	 viewBox="0 0 256 256" style="enable-background:new 0 0 256 256;" xml:space="preserve">
<g id="Your_Icon_2_">
	<path style="fill:#BB9D6E;" d="M52.5,243.9c2.8,0.3,5.3-1.7,5.8-4.4c-0.3,3,1.9,5.6,4.9,5.9c3,0.3,5.6-1.9,5.9-4.9
		c0.3-3.2,1-11.3,1.4-14.2c0.1,0,0.2,0,0.2,0c19.3,1.6,41.1-12.8,45.4-43.4c1.9-13.2-1.5-26.4-9.6-37c-5.5-7.2-12.6-12.7-20.8-16.1
		c0.6-1.2,1-2.5,1.2-3.8c0.5-3.5-0.4-7-2.5-9.8c-2.1-2.8-5.2-4.6-8.7-5.1c-6.5-0.9-12.7,3.1-14.5,9.4c-0.2,0.6-0.3,1.2-0.4,1.8
		c-0.2,1.4-0.1,2.7,0.1,4c-1.4,0.2-2.8,0.4-4.2,0.7l-3.4-9.4c3.5-2.4,6.1-6,7.4-10.2c0.6-2.1,0.8-4.2,0.7-6.4l-1.6-23.9
		c-0.1-2.2-0.7-4.4-1.6-6.4L71.1,60c0.3,0.2,0.6,0.3,0.9,0.5c4.5,2.2,9.7,2.6,14.5,0.9l22.7-7.7c5.9-2,10.4-6.8,12.1-12.7
		c0,0,0-0.1,0-0.1l11.3-0.2c1.8,4.6,5.5,8.5,10.4,10.5l22.2,9.1c4.6,1.9,9.7,1.9,14.3,0.1l5,6.3c-1,1.6-1.9,3.3-2.4,5.2
		c-0.7,2.5-0.9,5.1-0.5,7.8l3.3,23.8c1,7.1,5.8,12.8,12.1,15.1l-0.3,7.9c-16.7,0.5-32.7,9.3-41.7,24.8c-2.8,4.9-4.9,9.8-6.2,14.5
		c-6,20.9,2,39,15.2,47.7c0.1,0,0.1,0.1,0.2,0.1c-1.6,2.6-5.9,9.5-7.6,12.2c-1.6,2.5-0.8,5.9,1.7,7.5c2.5,1.6,5.9,0.8,7.5-1.7l0,0
		c-0.2,0.3-0.4,0.7-0.5,1.1c-0.6,2.3,0.2,4.7,2.3,6.1c2.5,1.6,5.9,0.8,7.5-1.7c0.7-1,6-9.5,7.8-12.5c0.1,0,0.2,0,0.2,0.1
		c17.3,8.7,42.9,3.6,58.4-23.1c11.7-20.1,7.7-45-8.2-60.6c1-0.9,1.9-1.9,2.6-3.1c0.5-0.9,1-2,1.3-3c1.7-5.8-0.8-12-6.1-15
		c-6.3-3.7-14.4-1.5-18,4.8c-0.5,0.9-1,2-1.3,3c-0.1,0.3-0.1,0.5-0.2,0.8c-1.4-0.4-2.8-0.7-4.2-1l0.3-8c6.7-1.5,12.2-6.5,14.1-13.2
		c0.7-2.5,0.9-5.1,0.5-7.8L219,74.5c-1.4-10.3-11-17.6-21.3-16.2c-1.7,0.2-3.4,0.7-4.9,1.4l-4.8-6.1c0.8-1.1,1.4-2.3,2-3.6
		c4-9.8-0.7-20.8-10.3-24.7l-22.2-9.1c-4.7-1.9-9.8-1.9-14.5,0c-4.7,1.9-8.3,5.6-10.2,10.3c-0.3,0.7-0.5,1.4-0.7,2
		c-0.1,0.5-0.2,0.9-0.3,1.4L121.1,30c0-0.1-0.1-0.2-0.1-0.3c-1.6-4.8-5-8.7-9.6-10.9c-4.5-2.2-9.7-2.6-14.5-0.9l-22.7,7.7
		c-5.9,2-10.4,6.8-12.1,12.8c-1.1,3.7-1,7.6,0.3,11.3c0.3,0.9,0.7,1.7,1.1,2.6L51.2,62.3c-3.4-2.2-7.4-3.3-11.5-3
		c-8,0.5-14.8,6-17,13.7c-0.6,2.1-0.8,4.2-0.7,6.4l1.6,23.9c0.7,10.2,9.4,18,19.5,17.7l3.4,9.2c-13.2,5.9-23.7,17.4-27.9,31.9
		c-0.6,2.2-1.1,4.4-1.4,6.7c-4.3,30.6,12.7,50.4,31.7,54.2c0.1,0,0.2,0,0.2,0.1c-0.4,3.6-1.3,13.5-1.4,14.7
		C47.3,241,49.5,243.6,52.5,243.9z M231.9,195.9c-9.2,15.8-27.3,27.4-44.1,18.9c-5.2-2.6-11.3-1.2-14,3.3c2.5-4.6,0.8-10.6-4.1-13.8
		c-15.8-10.4-14.7-31.9-5.5-47.7c10.8-18.7,34.8-25,53.5-14.2C236.4,153.3,242.7,177.3,231.9,195.9z M222.3,129.8
		c0.7-1.1,2.1-1.5,3.2-0.9c0.9,0.5,1.4,1.6,1.1,2.7c-0.1,0.2-0.1,0.4-0.2,0.5c-0.7,1.1-2.1,1.5-3.2,0.9c0,0,0,0,0,0c0,0,0,0,0,0
		C222,132.4,221.6,131,222.3,129.8z M208.2,75.9l3.3,23.8c0.2,1.1,0.1,2.2-0.2,3.3c-0.5,1.9-1.7,3.4-3.3,4.5l0.3-7.7
		c0.1-3-2.2-5.5-5.2-5.6c-2.5-0.1-4.7,1.6-5.4,3.9c-0.1,0.4-0.2,0.9-0.2,1.3l-0.2,6.5c-0.9-1.1-1.6-2.5-1.8-4l-3.3-23.8
		c-0.1-0.6-0.1-1.1-0.1-1.7l3.7,4.7c1.9,2.4,5.3,2.8,7.6,0.9c2.4-1.9,2.8-5.3,0.9-7.6L200,69C204.1,68.9,207.7,71.8,208.2,75.9z
		 M147,26.1c2-0.8,4.2-0.8,6.2,0l22.2,9.1c3.5,1.4,5.5,5.1,4.9,8.7l-2.6-3.3c-1.9-2.4-5.3-2.8-7.6-0.9c-0.9,0.7-1.6,1.7-1.9,2.8
		c-0.5,1.6-0.2,3.4,1,4.8l2.7,3.4c-0.9,0-1.8-0.2-2.7-0.6L147,41.1c-0.5-0.2-0.9-0.4-1.4-0.7l4.1-0.1c3-0.1,5.4-2.5,5.3-5.5
		c-0.1-3-2.5-5.4-5.5-5.3l-6.4,0.1C144,28,145.3,26.8,147,26.1z M77.7,35.8l22.7-7.7c2-0.7,4.2-0.6,6.2,0.4c0.9,0.4,1.7,1,2.3,1.8
		l-4.3,0.1c-2.4,0-4.5,1.7-5.1,3.9c-0.1,0.5-0.2,1-0.2,1.6c0.1,3,2.5,5.4,5.5,5.3l4.2-0.1c-0.9,1-2.1,1.9-3.4,2.3l-22.7,7.7
		c-0.5,0.2-1.1,0.3-1.6,0.4l3.9-3.2c2.3-1.9,2.6-5.3,0.7-7.6c-1.9-2.3-5.3-2.6-7.6-0.7l-6,4.9C71.8,41.1,74.1,37.1,77.7,35.8z
		 M34.4,102.6l-1.6-23.9c-0.3-4.4,3.2-8.3,7.6-8.6c0.5,0,0.9,0,1.3,0l-3.6,3c-0.9,0.7-1.5,1.7-1.8,2.7c-0.5,1.7-0.1,3.5,1,4.9
		c1.9,2.3,5.3,2.6,7.6,0.7l4.1-3.3l1.5,23.4c0.1,0.9,0,1.9-0.3,2.7c-0.2,0.8-0.6,1.5-1,2.2l-1.9-5.3c-1-2.8-4.1-4.3-7-3.2
		c-1.7,0.6-2.9,2-3.3,3.6c-0.3,1.1-0.3,2.2,0.1,3.3l1.6,4.3C36.3,108,34.6,105.6,34.4,102.6z M72.1,125.5c-0.2-0.3-0.6-0.9-0.5-1.7
		c0.2-1.3,1.4-2.2,2.7-2c0.8,0.1,1.3,0.6,1.6,0.9c0.2,0.3,0.6,0.9,0.5,1.8c0,0.1,0,0.2-0.1,0.3c-0.3,1.1-1.4,1.8-2.6,1.7l0,0
		c0,0,0,0,0,0C72.8,126.3,72.3,125.8,72.1,125.5z M27.9,170.4c3-21.4,22.9-36.3,44.2-33.3c10.4,1.5,19.5,6.9,25.8,15.2
		c6.3,8.4,8.9,18.7,7.5,29c-3.4,23.9-19.6,35.2-33.8,34.1c-5.7-0.5-10.8,3.2-11.7,8.3c0.6-5.2-3.3-10.1-9-11.2
		C32.4,208.8,25.3,188.6,27.9,170.4z"/>
</g>
<g>
</g>
<g>
</g>
<g>
</g>
<g>
</g>
<g>
</g>
<g>
</g>
</svg>
