<?xml version="1.0" encoding="utf-8"?>
<!-- Generator: Adobe Illustrator 18.1.0, SVG Export Plug-In . SVG Version: 6.00 Build 0)  -->
<!DOCTYPE svg PUBLIC "-//W3C//DTD SVG 1.1//EN" "http://www.w3.org/Graphics/SVG/1.1/DTD/svg11.dtd">
<svg version="1.1" id="Layer_1" xmlns="http://www.w3.org/2000/svg" xmlns:xlink="http://www.w3.org/1999/xlink" x="0px" y="0px"
	 viewBox="0 0 256 256" style="enable-background:new 0 0 256 256;" xml:space="preserve">
<g>
	<path style="fill:#BB9D6E;" d="M190.8,140.4C190.8,140.4,190.8,140.4,190.8,140.4c11.6-3.5,23.6-8.2,35.1-14.5
		c18.5-10.8,27.9,0.4,21.1,17.3c-5.8,16-36.9,45.7-64,52.5c-10.4-7.3-30.8-12.3-54.3-12.4c-23.5,0.1-43.9,5.1-54.3,12.4
		c-27.1-6.8-58.2-36.5-64-52.5c-6.9-16.9,2.6-28.1,21.1-17.3c11.6,6.3,23.6,11,35.1,14.5c24.8,7.5,47.6,9.3,59.5,9.3l6.5,0
		C144.4,149.6,166.6,147.6,190.8,140.4z"/>
	<g id="XMLID_1_">
		<path style="fill:#BB9D6E;" d="M157.3,65.2c9.7,4.8,25.4,50.3,31.5,68.9c-23.3,6.8-44.7,8.6-56.2,8.8l-6.5,0
			c-11.6,0-33.5-1.7-57.5-8.7c6.1-18.6,21.8-64.1,31.5-69c11.1-5.5,20.6,3.6,28.3,4.5h-1.5c0.6,0.1,1.2,0.1,1.9,0
			c0.6,0.1,1.3,0,1.9,0H129C136.7,68.9,146.2,59.7,157.3,65.2z M153.5,100.5c0-2-1.6-3.7-3.7-3.7c-1.9,0-3.4,1.4-3.6,3.2L135,98.4
			l-5-10c1.3-0.5,2.3-1.9,2.3-3.4c0-2-1.6-3.7-3.7-3.7c-2,0-3.7,1.6-3.7,3.7c0,1.5,1,2.9,2.3,3.4l-5,10L111,100
			c-0.2-1.8-1.8-3.2-3.6-3.2c-2,0-3.7,1.6-3.7,3.7c0,2,1.6,3.7,3.7,3.7c1.2,0,2.3-0.6,3-1.6l8,7.8l-2,11.7c-0.4-0.2-0.9-0.3-1.5-0.3
			c-2,0-3.7,1.6-3.7,3.7s1.6,3.7,3.7,3.7c2,0,3.7-1.6,3.7-3.7c0-0.8-0.2-1.5-0.6-2.1l10.7-5.6l10.6,5.6c-0.4,0.6-0.6,1.3-0.6,2.1
			c0,2,1.6,3.7,3.7,3.7c2,0,3.7-1.6,3.7-3.7c0-2-1.6-3.7-3.7-3.7c-0.5,0-1,0.1-1.4,0.3l-2-11.7l8-7.8c0.7,0.9,1.8,1.5,3,1.5
			C151.9,104.2,153.5,102.6,153.5,100.5z"/>
	</g>
</g>
<g>
</g>
<g>
</g>
<g>
</g>
<g>
</g>
<g>
</g>
<g>
</g>
</svg>
