<?xml version="1.0" encoding="utf-8"?>
<!-- Generator: Adobe Illustrator 18.1.0, SVG Export Plug-In . SVG Version: 6.00 Build 0)  -->
<!DOCTYPE svg PUBLIC "-//W3C//DTD SVG 1.1//EN" "http://www.w3.org/Graphics/SVG/1.1/DTD/svg11.dtd">
<svg version="1.1" id="Layer_1" xmlns="http://www.w3.org/2000/svg" xmlns:xlink="http://www.w3.org/1999/xlink" x="0px" y="0px"
	 viewBox="0 0 256 256" style="enable-background:new 0 0 256 256;" xml:space="preserve">
<g id="Your_Icon">
	<path style="fill:#87724F;" d="M228.8,176.9c-1.8,0-3.3,0.6-4.7,1.5l-29.5-49.6l29.5-49.6c1.4,0.8,2.9,1.4,4.7,1.4
		c5.2,0,9.4-4.2,9.4-9.4c0-5.2-4.2-9.4-9.4-9.4c-5.2,0-9.4,4.2-9.4,9.4c0,0,0,0.1,0,0.1L161.9,72l-28.2-50.3c2.8-1.6,4.8-4.5,4.8-8
		c0-5.2-4.2-9.4-9.4-9.4c-5.2,0-9.4,4.2-9.4,9.4c0,3.5,2,6.4,4.9,8L96.4,72l-57.6-0.7c0,0,0-0.1,0-0.1c0-5.2-4.2-9.4-9.4-9.4
		c-5.2,0-9.4,4.2-9.4,9.4c0,5.2,4.2,9.4,9.4,9.4c1.7,0,3.3-0.6,4.7-1.4l29.5,49.6l-29.5,49.6c-1.4-0.8-3-1.5-4.7-1.5
		c-5.2,0-9.4,4.2-9.4,9.4c0,5.2,4.2,9.4,9.4,9.4c5.2,0,9.4-4.2,9.4-9.4c0,0,0-0.1,0-0.1l57.6-0.7l28.2,50.3c-2.8,1.6-4.9,4.5-4.9,8
		c0,5.2,4.2,9.4,9.4,9.4c5.2,0,9.4-4.2,9.4-9.4c0-3.5-2-6.4-4.8-8l28.2-50.3l57.6,0.7c0,0,0,0.1,0,0.1c0,5.2,4.2,9.4,9.4,9.4
		c5.2,0,9.4-4.2,9.4-9.4C238.1,181.1,233.9,176.9,228.8,176.9z"/>
</g>
<g>
</g>
<g>
</g>
<g>
</g>
<g>
</g>
<g>
</g>
<g>
</g>
</svg>
